<?xml version="1.0" encoding="UTF-8"?>
<svg id="Ebene_1" data-name="Ebene 1" xmlns="http://www.w3.org/2000/svg" viewBox="0 0 179.74 179.74">
  <defs>
    <style>
      .cls-1 {
        fill: #95989b;
      }

      .cls-1, .cls-2, .cls-3, .cls-4 {
        stroke-width: 0px;
      }

      .cls-2 {
        fill: #3e4347;
      }

      .cls-3 {
        fill: #ffce35;
      }

      .cls-4 {
        fill: #f1b200;
      }
    </style>
  </defs>
  <polygon class="cls-2" points="80.86 61.59 65.18 77.75 49.6 61.68 65.27 45.52 80.86 61.59"/>
  <path class="cls-1" d="m46.95,14.23l-27.67,28.54c-1.01,1.04-1.01,2.74,0,3.78l10.29,10.62.12.13,10.3,10.62c1.01,1.04,2.65,1.04,3.67,0l27.68-28.55c1.01-1.04,1.01-2.74,0-3.78l-20.71-21.36c-1.01-1.04-2.65-1.04-3.66,0Z"/>
  <path class="cls-1" d="m.76,61.87c-1.01,1.04-1.01,2.74,0,3.78l20.71,21.36c1,1.04,2.65,1.04,3.66,0,0,0,5.71-5.96,5.83-6.11L6.68,55.85c-.15.13-5.92,6.02-5.92,6.02Z"/>
  <path class="cls-2" d="m29.56,57.18l-10.29-10.62s3.38,5.93-5.5,6.99c-3.58.43-5.81,1.24-7.09,2.3l24.28,25.05c1.03-1.31,1.81-3.62,2.23-7.31,1.04-9.17,6.79-5.67,6.79-5.67l-10.3-10.62-.12-.13Z"/>
  <path class="cls-2" d="m111.14,12.04c-28.25-28.91-59.43,3.32-59.43,3.32l18.38,18.95s17.66-23.77,40-17.2c2.6.76,4.9,2.08,5.56,1.41.89-.92-2.51-4.43-4.51-6.48Z"/>
  <path class="cls-4" d="m73.02,69.67l-10.13,10.46s5.23,8.43,14.22,17.69c9.91,10.23,23.01,15.96,36.09,29.46,19.68,20.3,36.05,42.09,41.98,50.27,2.24,3.09,2.6,2.8,5.33-.03l8.54-8.8-96.03-99.04Z"/>
  <path class="cls-3" d="m73.02,69.67l10.14-10.46s8.17,5.4,17.15,14.67c9.92,10.22,15.48,23.74,28.56,37.23,19.68,20.3,40.8,37.18,48.74,43.3,2.99,2.31,2.71,2.68-.03,5.51l-8.53,8.8-96.03-99.04Z"/>
</svg>